<svg width="44" height="40" viewBox="0 0 44 40" fill="none" xmlns="http://www.w3.org/2000/svg">
<path d="M38.6654 0H5.33203C2.57061 0 0.332031 2.23858 0.332031 5V28.3333C0.332031 31.0948 2.57061 33.3333 5.33203 33.3333H38.6654C41.4268 33.3333 43.6654 31.0948 43.6654 28.3333V5C43.6654 2.23858 41.4268 0 38.6654 0Z" fill="#70E000"/>
<path d="M28.666 36.6667H15.3327C14.8907 36.6667 14.4667 36.8423 14.1542 37.1548C13.8416 37.4674 13.666 37.8913 13.666 38.3334C13.666 38.7754 13.8416 39.1993 14.1542 39.5119C14.4667 39.8244 14.8907 40 15.3327 40H28.666C29.108 40 29.532 39.8244 29.8445 39.5119C30.1571 39.1993 30.3327 38.7754 30.3327 38.3334C30.3327 37.8913 30.1571 37.4674 29.8445 37.1548C29.532 36.8423 29.108 36.6667 28.666 36.6667Z" fill="#70E000"/>
</svg>
